<?xml version="1.0" standalone="no"?>
<!DOCTYPE svg PUBLIC "-//W3C//DTD SVG 1.1//EN" "http://www.w3.org/Graphics/SVG/1.1/DTD/svg11.dtd" >
<svg xmlns="http://www.w3.org/2000/svg">
<metadata>Generated by IcoMoon</metadata>
<defs>
<font id="spicon" horiz-adv-x="1024">
<font-face units-per-em="1024" ascent="960" descent="-64" />
<missing-glyph horiz-adv-x="1024" />
<glyph unicode="&#x20;" horiz-adv-x="512" d="" />
<glyph unicode="&#xe600;" glyph-name="spicon_logo" d="M512-48c0 0 61.872 78.688 133.664 184.336h-267.328c71.808-105.648 133.664-184.336 133.664-184.336zM863.296 592.704c0 194.016-157.28 351.296-351.296 351.296s-351.296-157.28-351.296-351.296c0-86.336 69.568-222.672 146.768-347.44h409.056c77.2 124.768 146.768 261.104 146.768 347.44zM293.936 592.704c0 120.448 97.648 218.080 218.064 218.080 120.432 0 218.064-97.632 218.064-218.080 0-120.416-97.632-218.048-218.064-218.048-120.416 0-218.064 97.632-218.064 218.048z" />
<glyph unicode="&#xe601;" glyph-name="spicon_nav" d="M928.944 530.672h-833.888c-43.664 0-79.056-36.944-79.056-82.672s35.392-82.672 79.056-82.672h833.888c43.664 0 79.056 36.944 79.056 82.672s-35.392 82.672-79.056 82.672zM928.944 861.344h-833.888c-43.664 0-79.056-36.96-79.056-82.672s35.392-82.672 79.056-82.672h833.888c43.664 0 79.056 36.96 79.056 82.672s-35.392 82.672-79.056 82.672zM928.944 200h-833.888c-43.664 0-79.056-36.944-79.056-82.672 0-45.696 35.392-82.656 79.056-82.656h833.888c43.664 0 79.056 36.96 79.056 82.656 0 45.728-35.392 82.672-79.056 82.672z" />
<glyph unicode="&#xe602;" glyph-name="spicon_home" d="M560.224 733.28c-12.576 14.72-30.96 23.216-50.32 23.216s-37.744-8.496-50.32-23.216l-282.24-330.832c-17.536-20.512-25.056-47.76-20.592-74.384l51.248-305.616c5.344-31.856 32.912-55.008 65.216-55.008h246.16c-0.080 1.152 0.096 1.584 0.096 2.592v221.904c0 14.4 11.456 26.24 25.856 26.24h118.592c14.4 0 26.176-11.824 26.176-26.24v-224.496h56.496c32.32 0 59.888 23.152 65.232 55.008l51.216 305.68c4.48 26.624-3.056 53.776-20.592 74.304l-282.224 330.848zM442.848 113.088c0-14.4-11.696-26.096-26.096-26.096h-90.592c-14.416 0-26.096 11.68-26.096 26.096v90.592c0 14.4 11.664 26.096 26.096 26.096h90.592c14.384 0 26.096-11.68 26.096-26.096v-90.592zM993.92 479.328l-350.592 389.968c-33.984 37.776-82.704 59.952-133.408 59.248-50.816-0.128-99.328-21.952-133.104-59.888l-346.912-389.52c-20.176-22.672-18.16-57.36 4.48-77.536 10.48-9.328 23.52-13.904 36.512-13.904 15.104 0 30.176 6.224 41.008 18.4l346.928 389.328c13.024 14.656 31.728 22.912 51.344 22.912 0.048 0 0.128 0 0.16 0 19.552 0 38.24-8.128 51.296-22.656l350.608-389.872c20.272-22.592 55.024-24.352 77.568-4.064 22.544 20.256 24.4 55.024 4.112 77.584z" />
<glyph unicode="&#xe603;" glyph-name="spicon_activity" d="M512-48c54.656 0 99.36 44.64 99.36 99.2h-198.72c0-54.56 44.704-99.2 99.36-99.2zM89.648 100.8h844.72l-99.408 148.8v272.8c0 153.76-104.336 277.744-248.416 312.464v34.752c-0.016 39.68-34.848 74.384-74.544 74.384s-74.528-34.704-74.528-74.384v-34.736c-144.080-34.72-248.416-158.704-248.416-312.464v-272.816z" />
<glyph unicode="&#xe604;" glyph-name="spicon_punch" d="M918.384 540.448l-4.032 91.472c-58.848 95.216-96.48-24.256-96.48-24.256l-0.080-1.136c-13.424 222.752-150.080 337.472-343.696 337.472-203.952 0-369.36-127.040-369.36-373.92 0-181.872 103.040-351.424 238.736-428.176v-189.904h384.432v202.72c25.040 27.6 43.136 62.736 56.4 102.672v-0.16c154.368 143.632 134.080 283.216 134.080 283.216zM369.984 851.024c-40.56-17.744-76.496-45.52-107.92-78-31.264-32.8-58.512-70.128-81.6-110.8 12.416 45.328 35.392 87.84 65.216 125.168 14.8 18.864 32.128 35.792 50.832 51.104 18.928 15.12 39.872 27.872 62.064 38.080 22.384 9.76 46.048 16.832 70.176 20.432 24.128 3.216 48.592 3.968 72.464 0.976 47.952-5.424 93.376-22.064 133.664-45.904-44.928 13.104-90.128 22.992-135.168 24.080-44.928 1.024-89.488-6.768-129.728-25.136zM699.488 28.896h-163.824v62.976h163.776l0.048-62.976z" />
<glyph unicode="&#xe605;" glyph-name="spicon_search" d="M985.968 81.968l-204.496 204.464c49.28 71.136 73.92 150.432 73.92 237.872 0 56.816-11.008 111.184-33.072 163.056-22.048 51.856-51.856 96.576-89.44 134.128-37.536 37.568-82.256 67.376-134.128 89.424-51.872 22.064-106.208 33.088-163.056 33.088-56.816 0-111.184-11.024-163.040-33.088-51.872-22.048-96.592-51.856-134.144-89.424-37.552-37.552-67.36-82.272-89.424-134.128-22.064-51.872-33.088-106.24-33.088-163.056 0-56.848 11.024-111.184 33.088-163.024 22.048-51.872 51.872-96.592 89.424-134.16 37.552-37.584 82.288-67.36 134.144-89.44 51.872-22.032 106.224-33.072 163.040-33.072 87.456 0 166.72 24.672 237.872 73.92l204.496-203.856c14.288-15.104 32.16-22.672 53.648-22.672 20.64 0 38.528 7.568 53.632 22.672 15.104 15.072 22.656 32.976 22.656 53.648 0 21.040-7.328 38.928-22.032 53.648zM624.368 335.632c-52.256-52.256-115.136-78.368-188.672-78.368-73.52 0-136.4 26.128-188.672 78.368-52.272 52.288-78.4 115.152-78.4 188.688 0 73.52 26.144 136.416 78.4 188.672 52.256 52.272 115.136 78.4 188.672 78.4s136.432-26.144 188.672-78.4c52.288-52.256 78.4-115.136 78.4-188.672 0.016-73.536-26.112-136.416-78.4-188.688z" />
<glyph unicode="&#xe606;" glyph-name="spicon_spoting" d="M1007.808 551.744c-2.176 37.632-32.16 59.424-57.808 63.52-68.736 13.952-151.2 18.080-238 11.936l-4.32-0.32c-52.96-3.68-84.912-5.904-123.648-23.072-8.256-3.664-16.784-7.808-24.448-11.68-10.832-5.536-26.544-11.392-33.056-12.8-3.664-0.832-7.44-1.632-10.544-2.256-2.224-0.336-6.064-0.288-7.632-0.064-3.344 0.672-7.152 1.472-11.088 2.352-6.32 1.36-22.032 7.216-32.944 12.8-7.6 3.84-16.128 8-24.368 11.648-38.72 17.168-70.672 19.392-123.568 23.072l-4.4 0.32c-86.624 6.096-169.728 1.904-236.448-11.664-27.040-4.448-57.136-26.32-59.28-63.52-0.4-5.952-0.208-14.8 0.016-23.744l0.064-4.032c0.048-2.88 0.112-5.376 0.080-6.896-0.736-28.528 12.224-42.432 18.288-48.928l0.048-0.048c0.112-0.384 0.224-0.896 0.336-1.504 18.448-110.528 24.016-143.872 88.048-177.216 27.584-14.368 79.584-23.664 132.512-23.664 40.512 0 99.312 5.44 149.376 31.296 66.72 34.368 95.616 131.136 104.096 165.856 0.8 0.064 1.712 0.864 2.72 0.864h1.792c0.416 0 0.832 0 1.216 0 8.256-32 37.328-131.472 104.080-165.872 50.080-25.904 108.896-31.712 149.408-31.712 52.88 0 104.896 9.072 132.496 23.44 64.064 33.344 69.632 66.608 88.096 177.104 0.112 0.656 0.224 1.12 0.32 1.504 6.272 6.736 19.040 20.64 18.336 49.072-0.048 1.856 0.032 4.976 0.112 8.512l0.048 1.92c0.24 9.264 0.432 18.064 0.064 23.776zM887.744 472.656c0.144-29.456-5.024-81.472-41.152-98.784-19.44-9.312-50.704-15.088-81.616-15.088-56.848 0-102.896 17.84-120.176 46.608-32.608 54.144-31.424 89.488-29.856 100.736 7.136 4.736 35.392 18.992 122.368 24.016 21.824 1.232 40.048 1.824 55.744 1.824 72.336 0 81.056-13.184 85.696-20.208 3.888-5.904 8.944-25.92 8.992-39.104zM145.152 511.68c4.688 7.088 13.408 20.304 85.744 20.304 15.52 0 33.76-0.608 55.712-1.84 88.112-5.088 115.792-19.632 122.544-24.32 1.472-11.312 2.384-46.688-29.952-100.448-17.312-28.736-63.36-46.592-120.176-46.592-30.944 0-62.208 5.776-81.632 15.088-36.128 17.312-41.312 69.312-41.168 98.8 0.048 13.168 5.104 33.2 8.928 39.008z" />
<glyph unicode="&#xe607;" glyph-name="spicon_spotter" d="M275.104 726.688c163.728 211.264 60.608-98.176 189.168-103.904 12.496 8.96 27.808 14.224 44.336 14.224 3.136 0 6.336-0.24 9.424-0.608 73.776 202.624 177.488 187.056 260.304 35.616 105.76-258.496-128.864 19.232-192.544-128.368-4.016-9.2-8.224-16.56-13.76-25.008 1.52-1.664 3.136-3.456 4.768-5.264 146.56-169.888 81.792-254.448-93.28-250.32-279.088 38.080 90.976 108.736-17.696 234.736-8.768 6.016-16.208 13.712-21.84 22.704-219.28-41.296-259.792 56.912-168.88 206.192zM512 944c213.904 0 387.44-173.488 387.44-387.376 0-201.504-154.032-367.152-350.688-385.68v-142.656h102.592v-76.288h-278.784v76.288h111.792v141.872c-201.040 14.176-359.792 181.776-359.792 386.464 0.064 213.888 173.536 387.376 387.44 387.376v0zM512 871.024c-173.632 0-314.384-140.8-314.384-314.4 0-173.616 140.816-314.464 314.384-314.464 173.664 0 314.384 140.848 314.384 314.464 0 173.6-140.8 314.4-314.384 314.4z" />
<glyph unicode="&#xe608;" glyph-name="spicon_promotion" d="M416.848 603.504c0-77.968-17.552-138.32-52.624-181.008-35.088-42.72-85.072-64.080-149.92-64.080-60.944 0-109.232 22.064-144.864 66.192-35.632 44.144-53.44 103.744-53.44 178.896 0 77.968 17.376 137.936 52.112 179.936s83.456 63.008 146.192 63.008c62.032 0 111.312-21.776 147.792-65.392 36.496-43.6 54.752-102.768 54.752-177.552zM176.032 601.376c0-40.752 3.344-70.192 10.080-88.256 6.752-18.096 16.848-27.12 30.32-27.12 13.504 0 23.488 8.88 30.032 26.592 6.576 17.712 9.856 47.312 9.856 88.784 0 40.752-3.28 70.16-9.856 88.256-6.544 18.064-16.528 27.088-30.032 27.088-13.808 0-24-9.216-30.56-27.648s-9.84-47.664-9.84-87.696zM804.368 835.28l-431.12-777.216h-157.888l431.136 777.216h157.872zM1008 294.096c0-77.616-17.648-137.76-52.912-180.464-35.248-42.72-85.136-64.064-149.632-64.064-60.992 0-109.28 22.064-144.896 66.192-35.6 44.128-53.424 103.568-53.424 178.336 0 77.968 17.36 137.968 52.112 179.952 34.736 42 83.456 62.992 146.208 62.992 62 0 111.264-21.776 147.76-65.376s54.784-102.784 54.784-177.568zM767.168 291.968c0-40.752 3.376-70.176 10.112-88.256 6.72-18.064 16.8-27.104 30.304-27.104 15.248 0 25.792 10.368 31.648 31.104 5.824 20.72 8.752 48.816 8.752 84.256s-2.928 63.536-8.752 84.272c-5.84 20.736-16.384 31.104-31.648 31.104-13.808 0-24.016-9.216-30.576-27.664-6.56-18.432-9.84-47.648-9.84-87.712z" />
<glyph unicode="&#xe609;" glyph-name="spicon_wishlist" d="M978.784 468.928l-446.448 446.256c-17.776 17.904-42.656 28.816-69.904 28.816h-347.312c-54.48 0-99.12-44.64-99.12-99.104v-347.28c0-27.248 10.928-52.128 29.216-70.48l446.432-446.288c17.792-17.936 42.672-28.848 69.92-28.848s52.112 10.912 69.904 29.216l347.248 347.296c18.352 17.808 29.28 42.688 29.28 69.92 0 27.248-11.44 52.544-29.216 70.496zM189.568 696c-41.088 0-74.432 33.184-74.432 74.432 0 41.072 33.344 74.448 74.432 74.448 41.248 0 74.432-33.376 74.432-74.448 0-41.248-33.2-74.432-74.432-74.432z" />
<glyph unicode="&#xe60a;" glyph-name="spicon_setting" d="M1004.88 503.056c-1.584 13.968-17.824 24.432-31.872 24.432-45.472 0-85.808 26.672-102.72 67.968-17.28 42.288-6.128 91.568 27.744 122.64 10.656 9.744 11.952 26.064 3.008 37.392-23.264 29.568-49.712 56.224-78.576 79.376-11.312 9.056-27.904 7.776-37.696-3.024-29.552-32.784-82.672-44.944-123.712-27.808-42.72 17.968-69.632 61.232-66.992 107.68 0.864 14.592-9.808 27.28-24.336 28.976-37.056 4.304-74.432 4.432-111.6 0.32-14.368-1.6-25.024-14-24.56-28.4 1.632-45.968-25.632-88.48-67.904-105.808-40.544-16.544-93.28-4.496-122.784 27.968-9.744 10.688-26.064 11.984-37.44 3.12-29.712-23.328-56.752-50.032-80.224-79.328-9.152-11.392-7.808-27.888 2.976-37.696 34.496-31.232 45.664-80.96 27.712-123.744-17.104-40.768-59.456-67.040-107.936-67.040-15.712 0.512-26.928-10.032-28.64-24.352-4.352-37.248-4.4-75.216-0.224-112.784 1.568-14.016 18.32-24.384 32.528-24.384 43.2 1.104 84.672-25.616 102.048-67.984 17.344-42.272 6.192-91.536-27.728-122.624-10.608-9.744-11.952-26.032-3.008-37.376 23.040-29.344 49.472-56.080 78.448-79.392 11.36-9.152 27.92-7.856 37.744 2.992 29.68 32.848 82.8 44.976 123.664 27.824 42.832-17.92 69.744-61.168 67.12-107.664-0.88-14.592 9.84-27.312 24.336-28.976 18.96-2.256 38.048-3.36 57.152-3.36 18.16 0 36.288 1.008 54.448 3.008 14.368 1.584 25.024 13.984 24.544 28.416-1.664 45.936 25.648 88.464 67.856 105.776 40.832 16.64 93.328 4.448 122.832-27.984 9.808-10.672 26.016-11.92 37.456-3.104 29.664 23.28 56.64 49.936 80.208 79.344 9.152 11.344 7.872 27.888-2.976 37.68-34.496 31.248-45.696 80.976-27.76 123.712 16.848 40.224 57.632 67.248 101.456 67.248l6.144-0.16c14.224-1.152 27.312 9.808 29.024 24.32 4.384 37.312 4.448 75.248 0.24 112.8zM512.784 281.504c-91.232 0-165.44 74.224-165.44 165.44 0 91.248 74.208 165.44 165.44 165.44 91.248 0 165.456-74.192 165.456-165.44 0-91.232-74.224-165.44-165.456-165.44z" />
<glyph unicode="&#xe60b;" glyph-name="spicon_login" d="M641.92 83.152h-509.632v729.68h509.664c11.28 0 20.448 9.216 20.448 20.576v75.824c0 11.344-9.168 20.608-20.448 20.608h-605.504c-11.28 0-20.448-9.264-20.448-20.608v-922.464c0-11.36 9.168-20.608 20.448-20.608h605.472c11.296 0 20.464 9.248 20.464 20.608v75.792c0 11.392-9.152 20.592-20.464 20.592zM1001.968 462.512l-275.488 277.152c-7.648 7.68-21.248 7.664-28.928 0l-65.376-65.76c-7.984-8.080-7.984-21.088 0-29.104l124.448-125.2h-538.64c-11.328 0-20.496-9.2-20.496-20.576v-102.048c0-11.36 9.168-20.576 20.496-20.576h538.672l-124.416-125.2c-8-8.032-8-21.040 0-29.104l65.344-65.776c3.84-3.808 9.024-5.984 14.464-5.984 5.424 0 10.64 2.176 14.448 5.984l275.504 277.136c3.856 3.808 6 9.040 6 14.512-0.016 5.552-2.176 10.768-6.032 14.544z" />
<glyph unicode="&#xe60c;" glyph-name="spicon_logout" d="M382.080 812.848h509.632v-729.68h-509.664c-11.28 0-20.448-9.216-20.448-20.576v-75.824c0-11.344 9.168-20.608 20.448-20.608h605.504c11.28 0 20.448 9.264 20.448 20.608v922.464c0 11.36-9.168 20.608-20.448 20.608h-605.472c-11.296 0-20.464-9.248-20.464-20.608v-75.792c0-11.392 9.152-20.592 20.464-20.592zM22.032 433.488l275.488-277.152c7.648-7.68 21.248-7.664 28.928 0l65.376 65.76c7.984 8.080 7.984 21.088 0 29.104l-124.448 125.2h538.64c11.328 0 20.496 9.2 20.496 20.576v102.048c0 11.36-9.168 20.576-20.496 20.576h-538.672l124.416 125.2c8 8.032 8 21.040 0 29.104l-65.344 65.776c-3.84 3.808-9.024 5.984-14.464 5.984-5.424 0-10.64-2.176-14.448-5.984l-275.504-277.136c-3.856-3.808-6-9.040-6-14.512 0.016-5.552 2.176-10.768 6.032-14.544z" />
<glyph unicode="&#xe60d;" glyph-name="spicon_like" d="M511.968 4.144c-967.632 527.824-267.808 1184.096 0 742.128 267.84 441.968 967.728-214.304 0-742.128z" />
<glyph unicode="&#xe60e;" glyph-name="spicon_comment" d="M994.256 464.368c0-102.080-44-195.216-116.304-267.136v-176.608l-172.208 67.6c-59.28-22.336-124.784-34.848-193.744-34.848-266.368 0-482.256 183.968-482.256 410.912 0 227.088 215.888 411.088 482.256 411.088s482.256-183.968 482.256-411.008zM877.952 6.512c-1.664 0-3.264 0.304-4.864 0.944l-167.408 65.632c-61.632-22.464-126.784-33.904-193.68-33.904-273.456 0.032-496 190.768-496 425.104 0 234.48 222.544 425.2 496 425.2 273.488 0 496-190.72 496-425.104 0-99.76-41.12-196.592-116.192-273.136v-170.608c0-4.688-2.272-9.040-6-11.584-2.272-1.632-5.056-2.544-7.856-2.544zM705.744 102.352c1.664 0 3.344-0.352 4.992-0.96l153.488-60.304v156.128c0 3.808 1.568 7.52 4.256 10.176 72.224 71.76 112 162.992 112 256.976 0 218.832-210.112 396.928-468.48 396.928-258.4 0-468.48-178.096-468.48-397.008 0-218.816 210.112-396.816 468.48-396.816 65.44 0 129.104 11.36 189.072 34 1.568 0.576 3.088 0.88 4.672 0.88z" />
<glyph unicode="&#xe60f;" glyph-name="spicon_quote" d="M333.504 487.504c-24.432 7.184-48.864 10.816-72.656 10.816-36.704 0-67.312-8.512-91.024-19.008 22.864 85.408 77.856 232.752 187.424 249.36 10.16 1.52 18.448 9.008 21.248 19.072l23.92 87.28c2 7.376 0.816 15.216-3.312 21.664-4.144 6.4-10.736 10.688-18.256 11.728-8.080 1.088-16.272 1.712-24.416 1.712-131.52 0-261.728-139.888-316.72-340.16-32.272-117.488-41.696-294.112 37.712-405.312 44.48-62.192 109.408-95.424 192.864-98.784 0.32 0 0.624-0.016 1.008-0.016 102.992 0 194.304 70.688 222.080 171.856 16.624 60.528 9.12 123.92-21.12 178.704-29.904 54.144-79.232 93.632-138.752 111.088zM978.24 376.432c-29.888 54.128-79.184 93.616-138.768 111.056-24.416 7.184-48.88 10.816-72.624 10.816-36.704 0-67.328-8.512-91.072-19.008 22.88 85.408 77.888 232.752 187.456 249.36 10.16 1.52 18.448 9.008 21.248 19.072l23.904 87.28c2.016 7.376 0.816 15.216-3.296 21.664-4.128 6.4-10.768 10.688-18.208 11.728-8.048 1.088-16.32 1.712-24.48 1.712-131.488 0-261.728-139.888-316.704-340.16-32.224-117.488-41.712-294.112 37.712-405.328 44.496-62.192 109.344-95.44 192.848-98.768 0.352-0.016 0.688-0.016 1.040-0.016 102.96 0 194.304 70.688 222.112 171.856 16.528 60.576 9.056 123.968-21.168 178.736z" />
<glyph unicode="&#xe610;" glyph-name="spicon_arrow-up" d="M43.28 313.936c-17.632-17.248-27.312-40.528-27.312-65.6 0-23.504 8.736-45.776 24.512-62.72 16.080-17.184 37.584-26.912 60.64-27.44 23.056-0.512 44.928 8.24 61.696 24.624l348.128 340.944 350.368-341.12c16.752-16.336 38.736-25.024 61.696-24.432 23.072 0.592 44.592 10.432 60.64 27.664 15.664 16.864 24.304 39.056 24.304 62.48 0 25.12-9.76 48.512-27.52 65.872l-410.144 399.264c-33.488 32.592-86.016 32.496-119.456-0.24l-407.552-399.296z" />
<glyph unicode="&#xe611;" glyph-name="spicon_arrow-right" d="M377.904 916.688c-17.248 17.632-40.528 27.312-65.584 27.312-23.488 0-45.776-8.736-62.72-24.512-17.184-16.080-26.896-37.584-27.424-60.64-0.512-23.056 8.24-44.928 24.64-61.696l340.928-348.128-341.12-350.368c-16.336-16.752-25.024-38.736-24.448-61.696 0.608-23.072 10.432-44.592 27.68-60.64 16.816-15.696 39.040-24.32 62.448-24.32 25.136 0 48.528 9.76 65.872 27.52l399.264 410.16c32.592 33.488 32.496 86.016-0.24 119.456l-399.296 407.552z" />
<glyph unicode="&#xe612;" glyph-name="spicon_arrow-down" d="M43.28 582.064c-17.632 17.248-27.312 40.528-27.312 65.6 0 23.504 8.736 45.776 24.512 62.72 16.080 17.184 37.584 26.912 60.64 27.44 23.056 0.512 44.928-8.24 61.696-24.624l348.128-340.944 350.368 341.12c16.752 16.336 38.736 25.024 61.696 24.432 23.072-0.592 44.592-10.432 60.64-27.664 15.664-16.864 24.304-39.056 24.304-62.48 0-25.12-9.76-48.512-27.52-65.872l-410.144-399.264c-33.488-32.592-86.016-32.496-119.456 0.24l-407.552 399.296z" />
<glyph unicode="&#xe613;" glyph-name="spicon_arrow-left" d="M646.032 916.688c17.248 17.632 40.528 27.312 65.6 27.312 23.504 0 45.776-8.736 62.72-24.512 17.184-16.080 26.912-37.584 27.44-60.64 0.512-23.056-8.24-44.928-24.624-61.696l-340.944-348.144 341.12-350.368c16.336-16.752 25.024-38.736 24.432-61.696-0.592-23.072-10.432-44.592-27.664-60.64-16.864-15.68-39.072-24.304-62.48-24.304-25.12 0-48.512 9.76-65.872 27.52l-399.264 410.16c-32.592 33.488-32.496 86.016 0.24 119.456l399.296 407.552z" />
<glyph unicode="&#xe614;" glyph-name="spicon_checked" d="M981.312 781.408c-35.6 36.592-93.168 36.592-128.736-0.016l-447.936-461.232-233.216 240.144c-35.536 36.608-93.12 36.56-128.736 0-35.552-36.576-35.6-95.952-0.048-132.496l361.984-372.64 576.704 593.728c35.6 36.64 35.568 95.888-0.016 132.512z" />
</font>
</defs>
</svg>
